PathFileType	4	(X/Y/Z)	D:\TRACE\spot_10-12-23\spot_body_motion_2_5-platform.trc
DataRate	CameraRate	NumFrames	NumMarkers	Units	OrigDataRate	OrigDataStartFrame	OrigNumFrames
100.00	100.00	      66	5	mm	100.00	5251	      7000
Frame#	Time	Left_Front			Right_Front			Left_Aft			Right_Aft			Post			
		X1	Y1	Z1	X2	Y2	Z2	X3	Y3	Z3	X4	Y4	Z4	X5	Y5	Z5	

5251	52.500	-814.29016	-55.42079	-653.44470	757.92395	-50.51084	-646.57996	-731.84949	46.70559	479.91147	685.71954	58.74874	565.51752	-30.99134	649.68689	-1041.16248	
5252	52.510	-813.49664	-55.26413	-653.41815	758.94135	-50.15548	-646.53729	-730.90210	46.62114	479.92996	686.54230	58.74388	565.62872	-30.25687	649.79395	-1041.08435	
5253	52.520	-812.78455	-55.16000	-653.45776	759.83221	-49.98401	-646.39386	-730.04199	46.39616	479.89685	687.34778	58.61733	565.56659	-29.46112	650.01477	-1040.78442	
5254	52.530	-812.04480	-54.70547	-653.37524	760.43304	-49.96552	-646.44830	-729.32153	46.28867	480.03311	688.13727	58.33900	565.65985	-28.71527	650.49884	-1040.61719	
5255	52.540	-811.24329	-54.14635	-653.28351	761.23615	-49.80076	-646.43512	-728.39209	46.08613	480.29630	688.98395	58.21115	565.83301	-28.00148	650.99689	-1040.28357	
5256	52.550	-810.28589	-54.07065	-653.25366	761.89191	-49.31928	-646.56970	-727.73541	45.86282	480.25998	689.75885	57.98811	565.82001	-27.13580	651.47052	-1039.86133	
5257	52.560	-809.23340	-53.90474	-653.34656	763.16791	-48.45816	-646.52618	-726.69818	45.78398	480.42169	690.78204	57.65972	565.89740	-25.90433	652.11188	-1039.36121	
5258	52.570	-808.69281	-53.22684	-653.17157	764.06488	-48.11272	-646.30664	-725.81189	45.41229	480.59116	691.66687	57.32843	566.06158	-25.23886	652.58002	-1039.16492	
5259	52.580	-807.69165	-52.92498	-653.09772	764.77454	-47.92108	-646.23407	-725.00623	45.06273	480.67633	692.35278	56.85384	566.13831	-24.45776	653.48169	-1038.56079	
5260	52.590	-806.81799	-52.55786	-652.94647	765.69214	-47.23884	-646.58636	-723.93549	44.63702	480.72647	693.27802	56.60338	566.23395	-23.40169	654.22644	-1037.89612	
5261	52.600	-805.63031	-52.15163	-652.99091	766.66113	-46.67052	-646.02002	-723.19226	44.49752	480.81039	694.56873	56.38400	566.54980	-22.65213	654.80981	-1037.39905	
5262	52.610	-804.84912	-51.50949	-652.86432	767.60968	-46.46906	-645.89563	-722.22473	44.09841	480.97253	695.21320	55.82742	566.73175	-21.75146	655.84021	-1036.52490	
5263	52.620	-804.13464	-50.51296	-652.88776	768.60400	-45.78926	-645.81964	-721.18463	43.64455	481.08704	695.89520	55.29969	566.92969	-20.79679	656.65936	-1035.94153	
5264	52.630	-803.10791	-50.10266	-652.69922	769.57269	-45.24191	-645.97430	-720.16351	43.30030	481.28448	697.24774	55.03856	567.10199	-19.97956	657.54828	-1035.06287	
5265	52.640	-801.80377	-49.76721	-652.61530	770.63879	-44.58411	-645.74030	-719.39581	42.88373	481.35452	698.19855	54.64227	567.22986	-18.65939	658.58173	-1034.30701	
5266	52.650	-801.13910	-48.80536	-652.51788	771.70868	-43.87790	-645.50012	-718.23090	42.33646	481.78619	699.17993	54.12190	567.46643	-17.83965	659.51477	-1033.47888	
5267	52.660	-800.08234	-48.25191	-652.52484	772.58801	-43.30703	-645.48352	-717.10760	41.95354	482.11945	700.34143	53.63492	567.59106	-16.59469	660.55737	-1032.57288	
5268	52.670	-798.94385	-47.79744	-652.18170	773.57135	-42.56912	-645.38647	-716.21820	41.59993	482.27133	701.21759	52.96141	567.79730	-15.80028	661.70984	-1031.56787	
5269	52.680	-797.99921	-46.92125	-652.17896	774.79047	-41.91305	-645.03180	-715.22565	41.19590	482.39545	702.01648	52.46160	568.06891	-14.72775	663.10089	-1030.46692	
5270	52.690	-797.00073	-46.04689	-652.07855	775.46613	-41.20507	-645.06061	-714.29260	40.65562	482.57346	703.08142	51.64558	568.22430	-13.99575	664.17188	-1029.39783	
5271	52.700	-795.98401	-45.09382	-651.99823	776.64886	-40.11355	-645.30884	-713.16583	39.98982	482.95468	704.33240	51.09738	568.42175	-12.70556	665.31738	-1028.34302	
5272	52.710	-795.04175	-44.46492	-651.61853	777.49811	-39.50176	-644.69635	-712.31293	39.50565	483.07281	705.41217	50.43455	568.83191	-11.93114	667.04553	-1027.35754	
5273	52.720	-793.76630	-43.41113	-651.57703	778.85114	-38.34312	-644.89862	-711.15692	38.70482	483.29419	706.29120	49.80511	569.10205	-10.42635	668.27441	-1025.93567	
5274	52.730	-792.57458	-42.48837	-651.59839	779.51343	-37.59266	-644.54645	-710.06122	38.20940	483.55164	707.33746	49.05294	569.43384	-9.86147	669.81158	-1024.84424	
5275	52.740	-791.89838	-41.45236	-651.25409	780.93878	-36.30701	-644.45361	-708.97498	37.63099	483.77682	708.47876	48.29354	569.75665	-8.50329	671.51038	-1023.52911	
5276	52.750	-790.85095	-40.40033	-651.07007	781.78003	-35.49770	-644.16748	-707.74463	36.91969	484.10822	709.51239	47.41375	569.83197	-7.44858	672.79614	-1022.35297	
5277	52.760	-789.48688	-39.67149	-650.95258	783.00708	-34.56087	-644.19482	-706.81244	36.27958	484.23181	710.76001	46.63186	570.07898	-6.58348	674.33215	-1021.04016	
5278	52.770	-788.44220	-38.44822	-650.80206	784.19165	-33.54038	-643.71509	-705.67346	35.69297	484.67398	711.73206	45.97750	570.44617	-5.47357	676.02954	-1019.62793	
5279	52.780	-787.52429	-37.17494	-650.54742	785.30371	-32.35308	-643.72742	-704.47412	34.78564	485.16974	712.64398	45.14319	570.76367	-4.41984	677.79791	-1018.29169	
5280	52.790	-786.34113	-36.37724	-650.31293	786.16876	-31.39278	-643.46289	-703.67841	33.98771	485.37158	713.86932	44.21210	571.29181	-3.17389	679.36407	-1016.61267	
5281	52.800	-785.08948	-35.28722	-650.17969	787.58008	-30.16481	-643.26642	-702.37750	33.32485	485.81122	714.96985	43.32996	571.53668	-2.29152	680.96283	-1015.30670	
5282	52.810	-784.07623	-33.83065	-649.91846	788.36566	-28.98908	-643.45532	-701.31641	32.61173	485.96188	716.09882	42.27545	571.76062	-1.08146	682.81146	-1013.91541	
5283	52.820	-782.96625	-32.74556	-649.82617	789.50079	-27.83664	-642.91907	-700.16339	31.78152	486.28891	717.15863	41.41628	571.93219	0.09094	684.67358	-1012.05206	
5284	52.830	-781.66559	-31.89712	-649.63220	791.09802	-26.62419	-642.70044	-698.96722	31.17210	486.67676	718.53931	40.53420	572.29785	1.35647	686.67249	-1010.56628	
5285	52.840	-780.64014	-30.34506	-649.43359	791.83490	-25.50493	-642.45837	-697.69733	30.22844	486.94003	719.53625	39.53585	572.77515	2.18111	688.56244	-1008.86090	
5286	52.850	-779.52991	-29.09337	-649.09576	793.08435	-24.02828	-642.17963	-696.85602	29.52246	487.31558	720.64990	38.74517	573.19281	3.46147	690.41644	-1007.21698	
5287	52.860	-778.40930	-27.77061	-648.91876	794.13300	-22.80745	-642.06592	-695.81372	28.64777	487.45978	721.52747	37.40258	573.60327	4.37097	692.36652	-1005.58850	
5288	52.870	-777.26978	-26.55833	-648.57861	795.14557	-21.59137	-641.80444	-694.52527	27.68542	487.91553	722.43762	36.35540	574.03223	5.22400	694.51263	-1003.88824	
5289	52.880	-775.88104	-25.34782	-648.39557	796.53723	-20.11358	-641.29279	-693.31891	26.77793	488.25497	724.07837	35.46223	574.22778	6.47011	696.56281	-1002.04620	
5290	52.890	-774.67059	-24.21216	-648.08484	797.39551	-18.96930	-641.40686	-692.31085	25.94714	488.69452	724.39160	34.17259	574.68951	7.72249	698.67535	-999.99677	
5291	52.900	-773.80536	-22.47434	-647.92206	798.21198	-17.39457	-641.19073	-690.94849	24.86734	489.02530	725.63232	33.15917	575.12152	8.76510	700.77563	-998.34277	
5292	52.910	-773.11456	-20.96113	-647.41711	799.99707	-15.94493	-640.68939	-689.89203	24.03508	489.35999	725.92584	31.47070	575.76056	9.95474	702.72540	-996.39709	
5293	52.920	-771.54608	-19.77406	-647.11865	801.01672	-14.80210	-640.27588	-688.84839	23.08909	489.72787	727.63275	30.96461	576.21045	11.09870	704.85748	-994.33124	
5294	52.930	-770.41461	-18.27340	-646.97913	801.91388	-13.34511	-640.21338	-687.65179	22.28959	489.99277	729.56433	29.96115	576.20001	12.31897	706.91388	-992.28546	
5295	52.940	-769.49335	-16.62110	-646.87994	803.41785	-11.83991	-639.81415	-686.45752	21.17091	490.45880	730.83203	29.10876	576.56873	13.24244	709.23981	-990.24860	
5296	52.950	-768.24817	-15.51301	-646.37726	804.03479	-10.54856	-639.65326	-685.45154	20.23154	490.67596	731.18414	27.19928	577.04010	14.50338	711.33197	-988.44281	
5297	52.960	-767.13159	-13.93449	-645.95209	805.55524	-8.92107	-639.28821	-684.42365	19.15055	491.10910	732.29889	26.14887	577.29114	15.60247	713.59625	-986.37622	
5298	52.970	-765.66907	-12.71943	-645.88995	806.51794	-7.15511	-638.91553	-683.23022	18.26666	491.70624	733.75421	25.03502	577.62091	16.78285	715.82233	-984.37012	
5299	52.980	-764.95953	-10.83374	-645.57196	807.53259	-5.92198	-638.66235	-682.03931	17.29844	492.16776	734.87775	23.92419	578.11035	17.85573	718.10022	-982.41864	
5300	52.990	-764.17828	-9.31458	-645.10565	808.95001	-4.72090	-638.16083	-681.00128	16.25649	492.33795	736.33698	22.77630	578.56146	18.73379	720.60583	-980.43542	
5301	53.000	-762.72778	-8.09721	-644.80463	809.97809	-2.91853	-637.92651	-679.77026	15.12586	492.75180	737.12329	21.53597	578.82788	20.23068	722.68256	-978.71753	
5302	53.010	-761.56366	-6.28675	-644.60693	810.88336	-1.28663	-637.74518	-678.59161	14.03883	493.25095	738.65741	20.27175	579.25928	21.28524	724.96094	-976.62012	
5303	53.020	-760.51495	-4.68320	-644.18469	812.09290	0.07170	-637.32068	-677.53088	13.29199	493.47141	739.53296	19.33465	579.61469	22.14671	727.24072	-974.74164	
5304	53.030	-759.35754	-3.41642	-643.65625	813.30579	1.50974	-636.72229	-676.46338	11.90454	493.84973	740.87756	18.00706	580.08228	22.96098	729.59973	-972.97668	
5305	53.040	-758.41382	-1.51025	-643.39227	814.20697	3.52466	-636.56512	-675.48486	11.06107	494.06812	741.83972	16.90689	580.53735	24.23584	731.90247	-971.05695	
5306	53.050	-756.94299	-0.32491	-643.15619	815.54785	4.75971	-636.08563	-674.32190	9.87631	494.46609	742.74060	15.33606	580.86609	25.48318	734.26276	-968.85883	
5307	53.060	-756.08917	1.34545	-642.80255	816.31250	6.15976	-635.85681	-673.06769	8.79999	495.23663	744.07733	14.39277	581.28577	26.61236	736.42902	-966.63196	
5308	53.070	-754.96887	2.85928	-642.25043	817.41357	7.98466	-635.72308	-672.07214	7.71258	495.36591	744.97437	13.05315	581.55640	27.43724	738.76672	-964.60431	
5309	53.080	-754.17609	4.70625	-641.99500	818.62518	9.33723	-635.16022	-670.96814	6.76573	495.54977	746.20221	11.90191	581.99780	28.46670	741.19611	-962.48224	
5310	53.090	-753.16833	6.33759	-641.69476	819.46320	10.99804	-634.81384	-669.81537	5.77302	496.00995	747.13177	10.65035	582.26355	29.55444	743.51373	-960.31964	
5311	53.100	-752.18005	7.79325	-641.43787	820.58350	12.61661	-634.44385	-669.00476	4.65171	496.52167	748.09143	9.30847	582.71338	30.69137	745.70697	-958.11121	
5312	53.110	-751.05756	9.10241	-640.86078	821.74426	14.17042	-634.12653	-668.05530	3.50306	496.84195	749.28101	8.09214	583.17297	31.56223	748.09412	-955.99530	
5313	53.120	-750.06598	10.66886	-640.47931	822.55463	15.53115	-633.49207	-667.02246	2.26941	497.17230	749.94299	6.80239	583.49274	32.50348	750.44751	-953.79498	
5314	53.130	-749.26550	12.51846	-640.14001	823.34650	17.49279	-633.38110	-666.18689	1.43265	497.58337	751.19073	5.32550	583.95813	33.36446	752.88538	-951.69415	
5315	53.140	-748.32135	14.26350	-639.66602	824.64612	19.05630	-632.80682	-665.20612	0.34907	497.95776	752.09351	4.19178	584.19604	34.50055	755.12762	-949.64691	
5316	53.150	-747.09930	15.69307	-639.31903	825.39966	20.39678	-632.39465	-664.19080	-0.84669	498.30875	753.34949	2.96015	584.55786	35.63585	757.49670	-947.46722	
